<svg width="10" height="10" viewBox="0 0 10 10" fill="none" xmlns="http://www.w3.org/2000/svg">
<g clip-path="url(#clip0)">
<path d="M8.33333 0H1.66667C1.22464 0 0.800716 0.175595 0.488155 0.488155C0.175595 0.800716 0 1.22464 0 1.66667L0 8.33333C0 8.77536 0.175595 9.19928 0.488155 9.51184C0.800716 9.8244 1.22464 10 1.66667 10H8.33333C8.77536 10 9.19928 9.8244 9.51184 9.51184C9.8244 9.19928 10 8.77536 10 8.33333V1.66667C10 1.22464 9.8244 0.800716 9.51184 0.488155C9.19928 0.175595 8.77536 0 8.33333 0V0ZM9.16667 8.33333C9.16667 8.55435 9.07887 8.76631 8.92259 8.92259C8.76631 9.07887 8.55435 9.16667 8.33333 9.16667H1.66667C1.44565 9.16667 1.23369 9.07887 1.07741 8.92259C0.921131 8.76631 0.833333 8.55435 0.833333 8.33333V1.66667C0.833333 1.44565 0.921131 1.23369 1.07741 1.07741C1.23369 0.921131 1.44565 0.833333 1.66667 0.833333H8.33333C8.55435 0.833333 8.76631 0.921131 8.92259 1.07741C9.07887 1.23369 9.16667 1.44565 9.16667 1.66667V8.33333Z" fill="white"/>
<path d="M5 2.5C4.50555 2.5 4.0222 2.64662 3.61108 2.92133C3.19995 3.19603 2.87952 3.58648 2.6903 4.04329C2.50108 4.50011 2.45157 5.00277 2.54804 5.48773C2.6445 5.97268 2.8826 6.41814 3.23223 6.76777C3.58187 7.1174 4.02732 7.3555 4.51228 7.45196C4.99723 7.54843 5.49989 7.49892 5.95671 7.3097C6.41353 7.12048 6.80397 6.80005 7.07868 6.38893C7.35338 5.9778 7.5 5.49445 7.5 5C7.5 4.33696 7.23661 3.70107 6.76777 3.23223C6.29893 2.76339 5.66304 2.5 5 2.5ZM5 6.66667C4.67037 6.66667 4.34813 6.56892 4.07405 6.38578C3.79997 6.20265 3.58635 5.94235 3.4602 5.63781C3.33406 5.33326 3.30105 4.99815 3.36536 4.67485C3.42967 4.35155 3.5884 4.05458 3.82149 3.82149C4.05458 3.5884 4.35155 3.42967 4.67485 3.36536C4.99815 3.30105 5.33326 3.33405 5.63781 3.4602C5.94235 3.58635 6.20265 3.79997 6.38578 4.07405C6.56892 4.34813 6.66667 4.67036 6.66667 5C6.66667 5.44203 6.49107 5.86595 6.17851 6.17851C5.86595 6.49107 5.44203 6.66667 5 6.66667Z" fill="white"/>
<path d="M7.70825 2.91675C8.05343 2.91675 8.33325 2.63693 8.33325 2.29175C8.33325 1.94657 8.05343 1.66675 7.70825 1.66675C7.36307 1.66675 7.08325 1.94657 7.08325 2.29175C7.08325 2.63693 7.36307 2.91675 7.70825 2.91675Z" fill="white"/>
</g>
<defs>
<clipPath id="clip0">
<rect width="10" height="10" fill="white"/>
</clipPath>
</defs>
</svg>
