<svg width="12" height="12" viewBox="0 0 12 12" fill="none" xmlns="http://www.w3.org/2000/svg">
<path d="M11.0257 11.3686V11.3681H11.0284V7.19862C11.0284 5.15889 10.6025 3.58765 8.28934 3.58765C7.17735 3.58765 6.43112 4.21671 6.12648 4.8131H6.09431V3.77807H3.90112V11.3681H6.18483V7.60979C6.18483 6.62024 6.36679 5.66338 7.55552 5.66338C8.72678 5.66338 8.74424 6.79267 8.74424 7.67327V11.3686H11.0257Z" fill="white"/>
<path d="M0.183105 3.77881H2.46957V11.3685H0.183105V3.77881Z" fill="white"/>
<path d="M1.32428 0C0.593215 0 0 0.611623 0 1.36537C0 2.11912 0.593215 2.74354 1.32428 2.74354C2.05535 2.74354 2.64856 2.11912 2.64856 1.36537C2.6481 0.611623 2.05489 0 1.32428 0V0Z" fill="white"/>
</svg>
